<svg width="436" height="169" viewBox="0 0 436 169" fill="none" xmlns="http://www.w3.org/2000/svg">
<path d="M394.537 168.31V108.663H377.897V91.2358H435.212V108.663H418.572V168.31H394.537Z" fill="#1D1D1D"/>
<path d="M343.193 169C339.543 169 336.13 168.693 332.953 168.079C329.824 167.509 327.193 166.742 325.06 165.778C322.927 164.813 321.173 163.892 319.798 163.016C318.47 162.139 317.356 161.262 316.456 160.385L318.233 144.405C320.177 146.816 322.784 148.92 326.056 150.718C329.327 152.471 332.858 153.348 336.651 153.348C340.444 153.348 343.17 152.976 344.829 152.23C346.535 151.485 347.389 150.126 347.389 148.153C347.389 146.049 346.417 144.251 344.473 142.76C342.577 141.27 339.282 139.472 334.589 137.368C332.882 136.579 331.436 135.877 330.251 135.263C329.066 134.606 327.478 133.554 325.487 132.107C323.543 130.616 321.955 129.082 320.722 127.503C319.49 125.881 318.399 123.821 317.451 121.322C316.503 118.779 316.029 116.061 316.029 113.167C316.029 97.5153 325.581 89.6895 344.687 89.6895C347.721 89.6895 350.565 89.9964 353.22 90.6102C355.922 91.1801 358.032 91.8158 359.549 92.5173C361.066 93.2188 362.441 94.0518 363.673 95.0163C364.953 95.937 365.759 96.5946 366.091 96.9892C366.423 97.3399 366.66 97.6249 366.802 97.8441L363.246 110.536C361.398 108.52 359.075 107.029 356.278 106.065C353.528 105.056 350.897 104.552 348.384 104.552C342.316 104.552 339.282 106.306 339.282 109.813C339.282 110.734 339.472 111.567 339.851 112.312C340.23 113.057 340.847 113.737 341.7 114.351C342.553 114.965 343.335 115.491 344.047 115.929C344.805 116.367 345.824 116.915 347.104 117.573C348.432 118.187 349.427 118.691 350.091 119.086C357.012 121.804 362.085 125.026 365.309 128.753C368.58 132.479 370.215 137.017 370.215 142.366C370.215 151.047 367.892 157.667 363.246 162.226C358.648 166.742 351.964 169 343.193 169Z" fill="#1D1D1D"/>
<path fill-rule="evenodd" clip-rule="evenodd" d="M255.077 168.007H305.495V151.566L278.615 152.224V136.046V134.731V120.657V105.795L303.006 106.452L304.428 90.9323H255.077V168.007Z" fill="#1D1D1D"/>
<path fill-rule="evenodd" clip-rule="evenodd" d="M196.43 168.007H219.968V139.268V124.274V106.387L243.363 107.702V90.9322H196.43V168.007Z" fill="#1D1D1D"/>
<path d="M408.18 78.6209L404.98 66.3232H384.785L382.082 78.6209H361.176L382.865 6.87318L381.158 1.54636H410.527L434.278 78.6209H408.18ZM393.958 24.1689L387.7 52.9075H401.496L393.958 24.1689Z" fill="#1D1D1D"/>
<path d="M317.396 52.2823V77.9299H293.787V0.855387H303.174C305.449 0.855387 308.839 0.767703 313.343 0.592335C317.846 0.373125 321.568 0.263519 324.507 0.263519C334.747 0.263519 342.38 2.34602 347.405 6.51103C352.477 10.676 355.014 17.0551 355.014 25.6481C355.014 30.7338 353.805 35.2496 351.387 39.1954C349.017 43.1412 345.864 46.2759 341.929 48.5995C344.063 49.0818 345.888 50.1998 347.405 51.9535C348.969 53.7071 350.178 55.7896 351.031 58.201C351.885 60.5684 352.619 62.9798 353.236 65.4349C353.899 67.8462 354.634 70.2356 355.44 72.6031C356.294 74.9706 357.218 76.7462 358.214 77.9299H331.974C331.452 77.3162 331.049 75.6063 330.765 72.8004C330.48 69.9507 330.077 66.5529 329.556 62.6071C329.082 58.6175 328.394 55.2855 327.494 52.6111C327.399 52.6111 327.28 52.6111 327.138 52.6111C326.237 52.6111 325.266 52.6111 324.223 52.6111C323.227 52.5672 322.35 52.5234 321.592 52.4796C320.833 52.4357 320.027 52.3919 319.174 52.348C318.368 52.3042 317.775 52.2823 317.396 52.2823ZM317.396 40.0503H319.672C320.857 40.0503 321.852 40.0065 322.658 39.9188C323.464 39.8311 324.341 39.6776 325.289 39.4584C326.285 39.1954 327.091 38.8008 327.707 38.2747C328.371 37.7486 328.987 37.069 329.556 36.236C330.125 35.403 330.551 34.3289 330.836 33.0136C331.12 31.6984 331.263 30.1639 331.263 28.4102V23.2149C331.263 19.4006 330.172 16.7482 327.991 15.2575C325.858 13.7231 322.777 12.9558 318.747 12.9558H317.396V40.0503Z" fill="#1D1D1D"/>
<path d="M246.733 79.3111C241.85 79.3111 237.513 78.8727 233.72 77.9958C229.975 77.119 226.893 75.9352 224.476 74.4446C222.105 72.954 220.138 71.1126 218.574 68.9205C217.056 66.6845 215.99 64.339 215.374 61.8838C214.757 59.4287 214.449 56.7104 214.449 53.7292V0.855499H239.765V50.7698C239.765 56.3378 240.381 60.174 241.613 62.2784C242.893 64.339 244.742 65.3693 247.16 65.3693C248.487 65.3693 249.649 65.172 250.644 64.7774C251.64 64.339 252.564 63.6156 253.418 62.6072C254.271 61.555 254.911 60.0644 255.338 58.1353C255.812 56.1624 256.049 53.773 256.049 50.9671V0.855499H278.52V54.1238C278.52 57.0612 278.235 59.7136 277.667 62.0811C277.145 64.4486 276.15 66.7503 274.68 68.9863C273.258 71.1784 271.361 73.0197 268.991 74.5104C266.668 75.9572 263.61 77.119 259.818 77.9958C256.073 78.8727 251.711 79.3111 246.733 79.3111Z" fill="#1D1D1D"/>
<path d="M180.366 77.9301C179.797 77.2724 178.564 74.7077 176.668 70.2358C174.819 65.72 172.638 60.6343 170.126 54.9787C167.661 49.2792 165.48 44.9607 163.584 42.0233V77.9301H140.046V0.855499H163.584V37.7487L181.29 0.855499H204.97L183.779 37.0253C185.154 37.9021 186.979 40.2915 189.255 44.1935C191.53 48.0955 193.663 52.1947 195.654 56.4912C197.646 60.7878 199.708 65.1062 201.841 69.4466C203.974 73.7431 205.539 76.571 206.534 77.9301H180.366Z" fill="#1D1D1D"/>
<path d="M106.877 77.9295L103.677 65.6318H83.4812L80.779 77.9295H59.8724L81.5612 6.18178L79.8545 0.85495H109.223L132.974 77.9295H106.877ZM92.6545 23.4775L86.3967 52.2161H100.192L92.6545 23.4775Z" fill="#1D1D1D"/>
<path d="M27.1643 79.3105C23.5139 79.3105 20.1006 79.0036 16.9244 78.3898C13.7955 77.8199 11.1644 77.0526 9.03106 76.0881C6.89774 75.1236 5.14368 74.2029 3.76887 73.3261C2.44147 72.4492 1.3274 71.5724 0.426664 70.6955L2.20443 54.715C4.14813 57.1264 6.75552 59.2308 10.0266 61.0283C13.2977 62.782 16.8295 63.6589 20.6221 63.6589C24.4147 63.6589 27.1406 63.2862 28.7998 62.5409C30.5065 61.7956 31.3598 60.4365 31.3598 58.4636C31.3598 56.3591 30.388 54.5616 28.4443 53.071C26.548 51.5803 23.2532 49.7828 18.5599 47.6784C16.8532 46.8892 15.4073 46.1877 14.2221 45.574C13.037 44.9163 11.4488 43.8641 9.45773 42.4173C7.51403 40.9267 5.92589 39.3922 4.69331 37.8139C3.46072 36.1917 2.37036 34.1311 1.42221 31.6321C0.474071 29.0893 0 26.3711 0 23.4775C0 7.82583 9.55254 0 28.6576 0C31.6917 0 34.5361 0.306895 37.1909 0.920684C39.8931 1.49063 42.0027 2.12634 43.5198 2.82782C45.0368 3.52929 46.4116 4.36229 47.6442 5.32682C48.9242 6.24751 49.7301 6.90514 50.0619 7.29972C50.3938 7.65046 50.6308 7.93543 50.7731 8.15464L47.2175 20.847C45.3686 18.8302 43.0457 17.3396 40.2487 16.3751C37.4991 15.3667 34.868 14.8625 32.3554 14.8625C26.2873 14.8625 23.2532 16.6162 23.2532 20.1236C23.2532 21.0443 23.4428 21.8773 23.8221 22.6226C24.2013 23.3679 24.8176 24.0474 25.671 24.6612C26.5243 25.275 27.3065 25.8011 28.0176 26.2395C28.7761 26.678 29.7954 27.226 31.0754 27.8836C32.4028 28.4974 33.3983 29.0016 34.062 29.3962C40.9835 32.1144 46.056 35.3368 49.2797 39.0634C52.5508 42.79 54.1864 47.3276 54.1864 52.6764C54.1864 61.3571 51.8634 67.9773 47.2175 72.5369C42.619 77.0527 35.9346 79.3105 27.1643 79.3105Z" fill="#1D1D1D"/>
<path d="M0 118.596H296.491V140.833H0V118.596Z" fill="#D32B2B"/>
</svg>
