<svg width="36" height="26" viewBox="0 0 36 26" fill="none" xmlns="http://www.w3.org/2000/svg">
<path fill-rule="evenodd" clip-rule="evenodd" d="M21.4529 25.9967H28.5628V16.5755V11.6601V5.79614L35.6296 6.22731V0.729813H21.4529V25.9967Z" fill="#1D1D1D"/>
<path fill-rule="evenodd" clip-rule="evenodd" d="M33.7036 9.62984H7.89957L11.9473 17.3335H33.7036V9.62984Z" fill="#D32B2B"/>
<path d="M8.20529 25.9999C7.10266 25.9999 6.07163 25.8993 5.1122 25.6981C4.16708 25.5113 3.37233 25.2597 2.72794 24.9435C2.08354 24.6274 1.55371 24.3255 1.13843 24.0381C0.737474 23.7506 0.400957 23.4632 0.128879 23.1757L0.665874 17.9369C1.25299 18.7274 2.04058 19.4173 3.02865 20.0066C4.01673 20.5815 5.08356 20.8689 6.22915 20.8689C7.37474 20.8689 8.19813 20.7468 8.69933 20.5024C9.21484 20.2581 9.4726 19.8125 9.4726 19.1658C9.4726 18.4759 9.17904 17.8866 8.59193 17.398C8.01913 16.9093 7.0239 16.32 5.60623 15.6301C5.09072 15.3714 4.65396 15.1415 4.29596 14.9403C3.93797 14.7247 3.45825 14.3797 2.85682 13.9054C2.2697 13.4168 1.78998 12.9137 1.41767 12.3963C1.04535 11.8645 0.715994 11.189 0.429596 10.3698C0.143199 9.53618 0 8.64508 0 7.6965C0 2.5655 2.88546 0 8.65637 0C9.57284 0 10.432 0.100608 11.2339 0.301823C12.0502 0.488665 12.6874 0.697067 13.1456 0.927027C13.6039 1.15699 14.0192 1.43007 14.3915 1.74626C14.7781 2.04809 15.0216 2.26367 15.1218 2.39303C15.222 2.50801 15.2936 2.60143 15.3366 2.67329L14.2626 6.83414C13.7041 6.17301 13.0024 5.68434 12.1576 5.36814C11.327 5.03758 10.5323 4.87229 9.77332 4.87229C7.94037 4.87229 7.0239 5.44719 7.0239 6.597C7.0239 6.89882 7.08118 7.1719 7.19574 7.41623C7.3103 7.66056 7.49646 7.88334 7.75421 8.08455C8.01197 8.28577 8.24825 8.45824 8.46305 8.60197C8.69217 8.74569 9.00004 8.92535 9.38668 9.14094C9.78764 9.34215 10.0884 9.50744 10.2888 9.63679C12.3795 10.5279 13.9118 11.5843 14.8855 12.8059C15.8736 14.0276 16.3676 15.5152 16.3676 17.2686C16.3676 20.1144 15.6659 22.2846 14.2626 23.7794C12.8736 25.2597 10.8545 25.9999 8.20529 25.9999Z" fill="#1D1D1D"/>
</svg>
