<svg width="40" height="35" viewBox="0 0 40 35" fill="none" xmlns="http://www.w3.org/2000/svg">
<g clip-path="url(#clip0_4355_510)">
<path d="M4 35C2.9 35 1.95867 34.572 1.176 33.7159C0.393333 32.8599 0.00133333 31.8296 0 30.625V4.375C0 3.17187 0.392 2.14229 1.176 1.28625C1.96 0.430208 2.90133 0.00145833 4 0H36C37.1 0 38.042 0.42875 38.826 1.28625C39.61 2.14375 40.0013 3.17333 40 4.375V30.625C40 31.8281 39.6087 32.8584 38.826 33.7159C38.0433 34.5734 37.1013 35.0015 36 35H4ZM20 19.3047C20.1667 19.3047 20.342 19.277 20.526 19.2216C20.71 19.1661 20.8847 19.0845 21.05 18.9766L35.2 9.29687C35.4667 9.11458 35.6667 8.88708 35.8 8.61437C35.9333 8.34167 36 8.04052 36 7.71094C36 6.98177 35.7167 6.4349 35.15 6.07031C34.5833 5.70573 34 5.72396 33.4 6.125L20 15.3125L6.6 6.125C6 5.72396 5.41667 5.71521 4.85 6.09875C4.28333 6.48229 4 7.01969 4 7.71094C4 8.07552 4.06667 8.39489 4.2 8.66906C4.33333 8.94323 4.53333 9.1525 4.8 9.29687L18.95 18.9766C19.1167 19.0859 19.292 19.1683 19.476 19.2237C19.66 19.2792 19.8347 19.3061 20 19.3047Z" fill="#D32B2B"/>
</g>
<defs>
<clipPath id="clip0_4355_510">
<rect width="40" height="35" fill="white"/>
</clipPath>
</defs>
</svg>
