<svg width="40" height="40" viewBox="0 0 40 40" fill="none" xmlns="http://www.w3.org/2000/svg">
<g clip-path="url(#clip0_4355_512)">
<path d="M20 0.348145C9.15223 0.348145 0.348251 9.15213 0.348251 19.9999C0.348251 30.8477 9.15223 39.6516 20 39.6516C30.8478 39.6516 39.6517 30.8477 39.6517 19.9999C39.6517 9.15213 30.8478 0.348145 20 0.348145ZM29.1184 13.7113C28.8236 16.8163 27.5463 24.3626 26.8978 27.8409C26.6226 29.3148 26.0724 29.8061 25.5614 29.8651C24.4216 29.9633 23.557 29.1183 22.4565 28.3912C20.7271 27.2514 19.7445 26.5439 18.0741 25.4434C16.1286 24.1661 17.3863 23.4586 18.5065 22.3188C18.8012 22.024 23.8321 17.4452 23.9303 17.0325C23.944 16.97 23.9422 16.9051 23.9251 16.8434C23.9079 16.7818 23.876 16.7253 23.8321 16.6787C23.7142 16.5805 23.557 16.6198 23.4194 16.6394C23.2425 16.6787 20.4913 18.5064 15.1264 22.1223C14.3403 22.6529 13.6328 22.928 13.004 22.9083C12.2965 22.8887 10.9602 22.5153 9.95795 22.1812C8.71989 21.7882 7.75696 21.572 7.83557 20.8842C7.87487 20.5305 8.36616 20.1768 9.28979 19.8034C15.0281 17.3076 18.8405 15.6569 20.7468 14.8708C26.2099 12.5912 27.3301 12.1981 28.0769 12.1981C28.2341 12.1981 28.6075 12.2374 28.8433 12.434C29.0398 12.5912 29.0988 12.8074 29.1184 12.9646C29.0988 13.0825 29.1381 13.4362 29.1184 13.7113Z" fill="#D32B2B"/>
</g>
<defs>
<clipPath id="clip0_4355_512">
<rect width="40" height="40" fill="white"/>
</clipPath>
</defs>
</svg>
