<svg width="40" height="40" viewBox="0 0 40 40" fill="none" xmlns="http://www.w3.org/2000/svg">
<g clip-path="url(#clip0_4355_514)">
<path d="M20 0.235352C9.08412 0.235352 0.235291 9.08418 0.235291 20.0001C0.235291 30.9159 9.08412 39.7648 20 39.7648C30.9159 39.7648 39.7647 30.9159 39.7647 20.0001C39.7647 9.08418 30.9159 0.235352 20 0.235352ZM27.6012 22.5345C27.6012 22.5345 29.3491 24.2598 29.7794 25.0606C29.7918 25.0785 29.7993 25.0922 29.8021 25.1018C29.9764 25.3942 30.0196 25.6255 29.9318 25.7956C29.7876 26.0798 29.2935 26.2198 29.1247 26.2321H26.0365C25.8224 26.2321 25.3735 26.1765 24.83 25.8018C24.4121 25.5095 24.0003 25.0298 23.5988 24.5624C22.9997 23.8665 22.4809 23.2654 21.9579 23.2654C21.8915 23.2651 21.8255 23.2755 21.7624 23.2962C21.3671 23.4239 20.8606 23.988 20.8606 25.4909C20.8606 25.9604 20.49 26.2301 20.2285 26.2301H18.8141C18.3323 26.2301 15.8226 26.0612 13.5991 23.7162C10.8773 20.8442 8.42735 15.0836 8.40676 15.0301C8.25235 14.6574 8.57147 14.4577 8.91941 14.4577H12.0385C12.4544 14.4577 12.5903 14.7109 12.685 14.9354C12.7962 15.1968 13.2038 16.2365 13.8729 17.4059C14.9579 19.3124 15.6229 20.0865 16.1562 20.0865C16.2562 20.0854 16.3544 20.0599 16.4424 20.0124C17.1382 19.6254 17.0085 17.1445 16.9776 16.6298C16.9776 16.533 16.9756 15.5201 16.6194 15.0342C16.3641 14.6821 15.9297 14.5483 15.6662 14.4989C15.7728 14.3517 15.9134 14.2324 16.0759 14.1509C16.5535 13.9121 17.4141 13.8771 18.2685 13.8771H18.7441C19.6706 13.8895 19.9094 13.9492 20.245 14.0336C20.9244 14.1962 20.9388 14.6348 20.8791 16.1356C20.8606 16.5618 20.8421 17.0436 20.8421 17.6118L20.8359 18.0071C20.8153 18.7709 20.7906 19.6377 21.33 19.9939C21.3996 20.0398 21.4814 20.0634 21.5647 20.0618C21.7521 20.0618 22.3162 20.0618 23.8438 17.4409C24.3132 16.5965 24.7225 15.72 25.0688 14.818C25.0997 14.7645 25.1903 14.5998 25.2973 14.5359C25.3772 14.498 25.4643 14.4776 25.5526 14.4762H29.2194C29.6188 14.4762 29.8926 14.5359 29.9441 14.6904C30.0347 14.9354 29.9276 15.6827 28.2538 17.9495L27.5065 18.9356C25.9891 20.9245 25.9891 21.0254 27.6012 22.5345Z" fill="#D32B2B"/>
</g>
<defs>
<clipPath id="clip0_4355_514">
<rect width="40" height="40" fill="white"/>
</clipPath>
</defs>
</svg>
